<svg width="28" height="28" viewBox="0 0 28 28" fill="none" xmlns="http://www.w3.org/2000/svg">
<path d="M2 14C2 15.5759 2.31039 17.1363 2.91345 18.5922C3.5165 20.0481 4.40042 21.371 5.51472 22.4853C6.62902 23.5996 7.95189 24.4835 9.4078 25.0866C10.8637 25.6896 12.4241 26 14 26C15.5759 26 17.1363 25.6896 18.5922 25.0866C20.0481 24.4835 21.371 23.5996 22.4853 22.4853C23.5996 21.371 24.4835 20.0481 25.0866 18.5922C25.6896 17.1363 26 15.5759 26 14C26 10.8174 24.7357 7.76516 22.4853 5.51472C20.2348 3.26428 17.1826 2 14 2C10.8174 2 7.76516 3.26428 5.51472 5.51472C3.26428 7.76516 2 10.8174 2 14Z" stroke="white" stroke-width="2.66667" stroke-linecap="round" stroke-linejoin="round"/>
<path d="M14 7.33337V14L18 18" stroke="white" stroke-width="2.66667" stroke-linecap="round" stroke-linejoin="round"/>
</svg>
